<svg id="Layer_2" data-name="Layer 2" xmlns="http://www.w3.org/2000/svg" width="1920" height="1080" viewBox="0 0 1920 1080">
  <defs>
    <style>
      .cls-1 {
        fill: #c48a70;
      }

      .cls-2 {
        fill: #c8d1e2;
      }

      .cls-3 {
        fill: #d39676;
      }

      .cls-4 {
        fill: #fff;
      }

      .cls-5 {
        fill: #b5826b;
      }

      .cls-6 {
        fill: #b58559;
      }

      .cls-7 {
        fill: #c43f62;
      }

      .cls-8 {
        fill: #582b0e;
      }

      .cls-9 {
        fill: #70412c;
      }
    </style>
  </defs>
  <title>BandittenBrian</title>
  <rect class="cls-1" x="1468" y="622" width="47" height="75" rx="12" ry="12"/>
  <polygon class="cls-2" points="1491.96 867.03 1585 682 1398.93 682 1491.96 867.03"/>
  <rect class="cls-3" x="1448" y="529" width="88" height="139" rx="31.43" ry="31.43"/>
  <circle class="cls-4" cx="1466.82" cy="581.86" r="11.86"/>
  <circle cx="1466.39" cy="581.96" r="3.29"/>
  <circle class="cls-4" cx="1518.82" cy="581.86" r="11.86"/>
  <circle cx="1518.39" cy="581.96" r="3.29"/>
  <path class="cls-5" d="M1504.74,635.44a14.79,14.79,0,0,1,3,3.08c.57-5.11-.94-9.8-4.55-12.51-6.29-4.71-16.54-1.67-22.89,6.8a24.64,24.64,0,0,0-4,8C1485.14,632.2,1497.06,629.68,1504.74,635.44Z"/>
  <g>
    <path class="cls-3" d="M1535.69,607.59a10,10,0,0,0,1.1.06,9.33,9.33,0,0,0-.12-18.65,10,10,0,0,0-1.1.07Z"/>
    <path class="cls-6" d="M1536.27,602.52a3.1,3.1,0,0,0,.43,0,4.22,4.22,0,0,0,0-8.44l-.44,0Z"/>
  </g>
  <g>
    <path class="cls-3" d="M1447.82,607.59a9.82,9.82,0,0,1-1.09.06,9.33,9.33,0,0,1,.12-18.65,9.81,9.81,0,0,1,1.09.07Z"/>
    <path class="cls-6" d="M1447.25,602.52a3.24,3.24,0,0,1-.44,0,4.22,4.22,0,0,1,0-8.44c.15,0,.3,0,.44,0Z"/>
  </g>
  <path class="cls-7" d="M1499.12,615.37l6.89-21.88a7.3,7.3,0,0,0-7-9.49h-13.79a7.3,7.3,0,0,0-7,9.49l6.89,21.88A7.31,7.31,0,0,0,1499.12,615.37Z"/>
  <rect class="cls-8" x="1452.47" y="559" width="27.83" height="7.57" rx="3.78" ry="3.78"/>
  <rect class="cls-8" x="1504.47" y="548" width="27.83" height="7.57" rx="3.78" ry="3.78"/>
  <ellipse class="cls-9" cx="1491.5" cy="528.99" rx="26.5" ry="5.01"/>
  <ellipse class="cls-8" cx="1492" cy="668.5" rx="19" ry="3.5"/>
  <rect class="cls-2" x="1510" y="815" width="42" height="123" rx="12" ry="12"/>
  <rect class="cls-2" x="1431" y="815" width="42" height="123" rx="12" ry="12"/>
  <polygon class="cls-2" points="1474.15 822 1452.5 784.5 1430.85 822 1474.15 822"/>
  <polygon class="cls-2" points="1508.85 828 1530.5 790.5 1552.15 828 1508.85 828"/>
</svg>
