<svg id="Forgrund" xmlns="http://www.w3.org/2000/svg" width="1920" height="1080" viewBox="0 0 1920 1080">
  <defs>
    <style>
      .cls-1 {
        fill: #8c5827;
      }
    </style>
  </defs>
  <title>Ståting</title>
  <g>
    <rect class="cls-1" x="863.44" y="766.95" width="106.84" height="168.05"/>
    <polygon class="cls-1" points="970.28 766.95 1018.6 779.84 1018.6 923.19 970.28 935 970.28 766.95"/>
    <rect class="cls-1" x="856.99" y="744.94" width="113.28" height="22.01"/>
    <polygon class="cls-1" points="970.28 744.94 1018.6 758.9 1018.6 779.84 970.28 766.95 970.28 744.94"/>
    <path class="cls-1" d="M864,769.43a222,222,0,0,1,33.8,1.86c3.18.42,3.15-4.58,0-5a222,222,0,0,0-33.8-1.86c-3.21.07-3.22,5.07,0,5Z"/>
    <path d="M863.44,769.45H970.82c3.21,0,3.22-5,0-5H863.44c-3.22,0-3.23,5,0,5Z"/>
    <path d="M968.32,767V934.46c0,3.22,5,3.23,5,0V767c0-3.22-5-3.22-5,0Z"/>
    <path d="M968.32,745.48V767c0,3.22,5,3.22,5,0V745.48c0-3.22-5-3.23-5,0Z"/>
    <path d="M971.27,770.24l47.36,9.57c3.14.63,4.49-4.18,1.33-4.82l-47.36-9.58c-3.15-.63-4.49,4.19-1.33,4.83Z"/>
  </g>
</svg>
