<svg id="Layer_1" data-name="Layer 1" xmlns="http://www.w3.org/2000/svg" width="1920" height="1080" viewBox="0 0 1920 1080">
  <defs>
    <style>
      .cls-1 {
        fill: #c8d1e2;
      }

      .cls-2 {
        fill: #d39676;
      }

      .cls-3 {
        fill: #582b0e;
      }

      .cls-4 {
        fill: #fff;
      }

      .cls-5 {
        fill: #b58559;
      }

      .cls-6 {
        fill: #89334c;
      }

      .cls-7 {
        fill: #4e2d49;
      }

      .cls-8 {
        fill: #f3ff00;
      }

      .cls-9 {
        fill: #c43f62;
      }
    </style>
  </defs>
  <title>jesusfærdig</title>
  <rect class="cls-1" x="882.42" y="543.52" width="157.96" height="185.24" rx="12" ry="12"/>
  <ellipse class="cls-2" cx="961.4" cy="475.23" rx="88.36" ry="101.37"/>
  <path class="cls-3" d="M1067.56,611.09c16.44-31.64,25.48-102.19,3.7-171.75-6.78-21.66-20.76-66.32-40.68-66.8-20.28-.49-36.85,45.07-31.9,55.07,3.66,7.39,18.6-5.63,23.78,3.94,5.68,10.48-9,32.13-2.77,47.31,5.49,13.41,22.27,9.51,24.54,21.95.63,3.45-.53,4.52-1.19,10.29-2,17.45,6.46,25.9,6.53,39.1.1,19.84-18.9,21.88-19.31,41-.33,15.5,11.77,34.23,22.26,34.2C1056.4,625.36,1061.5,622.76,1067.56,611.09Z"/>
  <ellipse class="cls-4" cx="931.11" cy="462.11" rx="16.65" ry="27.91"/>
  <circle class="cls-4" cx="981.38" cy="462.11" r="16.42"/>
  <circle cx="981.38" cy="462.11" r="5.55"/>
  <circle cx="931.11" cy="462.11" r="8.37"/>
  <g>
    <path class="cls-2" d="M1030.81,464.26a17.65,17.65,0,0,0,2.19.12,18.7,18.7,0,0,0-.23-37.39,17.36,17.36,0,0,0-2.19.16Z"/>
    <path class="cls-5" d="M1032,454.1a8.27,8.27,0,0,0,9.18-8.47,8.4,8.4,0,0,0-8.41-8.4,8.49,8.49,0,0,0-.88,0Z"/>
  </g>
  <g>
    <ellipse class="cls-6" cx="962.07" cy="536.61" rx="45.64" ry="22.82"/>
    <ellipse class="cls-7" cx="962.07" cy="544.32" rx="27.75" ry="15.11"/>
  </g>
  <path class="cls-3" d="M877.85,507.38c11.33,41,44.75,70.68,84.22,70.68s72.89-29.7,84.23-70.68Z"/>
  <path class="cls-3" d="M963.35,638.52c64.28-.15,70.95-129.16,70.95-129.16H892.4S899.08,638.67,963.35,638.52Z"/>
  <path class="cls-3" d="M894.13,375.66C868,395.9,835.53,451.14,832,516.85c-1.09,20.45-3.35,62.63,15,70.32,18.7,7.83,49.67-23.92,48.48-34-.88-7.47-19.22-2.13-20.78-12-1.7-10.77,19.34-23.38,18.75-38.25-.52-13.14-17.46-16-15.32-27.19.59-3.1,2-3.57,4.62-8.11,7.83-13.75,2.84-23.86,7.29-34.84,6.68-16.5,25-11.24,31.95-26.93,5.6-12.74.75-32.72-9-36.53C909.39,367.91,903.76,368.2,894.13,375.66Z"/>
  <ellipse class="cls-3" cx="967.06" cy="388.51" rx="82.51" ry="26.35"/>
  <g>
    <path class="cls-2" d="M874.46,427.13a19.8,19.8,0,0,0-2.19-.14,18.7,18.7,0,0,0,0,37.4,17.64,17.64,0,0,0,2.19-.15Z"/>
    <path class="cls-5" d="M873.25,437.28a8.65,8.65,0,0,0-.88,0,8.46,8.46,0,0,0,0,16.92,8.65,8.65,0,0,0,.88,0Z"/>
  </g>
  <path class="cls-8" d="M965,352.52c-37.43,0-67.78,3.51-67.78,7.84s30.35,7.85,67.78,7.85,67.78-3.52,67.78-7.85S1002.39,352.52,965,352.52Zm0,13.89c-28.86,0-52.26-2.71-52.26-6.05s23.4-6.05,52.26-6.05,52.26,2.71,52.26,6.05S993.82,366.41,965,366.41Z"/>
  <path class="cls-2" d="M951.19,531.37a14.86,14.86,0,0,1-3.81-2c1,5,3.79,9.08,8,10.61,7.4,2.65,16.3-3.28,19.87-13.25a24.54,24.54,0,0,0,1.46-8.84C970.88,528.69,960.24,534.62,951.19,531.37Z"/>
  <rect class="cls-9" x="953.57" y="479.43" width="15.65" height="33.46" rx="7.83" ry="7.83"/>
  <rect class="cls-3" x="917.2" y="423.2" width="27.83" height="7.57" rx="3.78" ry="3.78"/>
  <rect class="cls-3" x="967.47" y="435" width="27.83" height="7.57" rx="3.78" ry="3.78"/>
</svg>
