<svg id="Sprite2" xmlns="http://www.w3.org/2000/svg" width="2800" height="500" viewBox="0 0 2800 500">
  <defs>
    <style>
      .cls-1 {
        fill: #385a8c;
      }

      .cls-2 {
        fill: #85bcff;
      }

      .cls-3 {
        fill: #c8d1e2;
      }

      .cls-4 {
        fill: #d39676;
      }

      .cls-5 {
        fill: #582b0e;
      }

      .cls-6 {
        fill: #fff;
      }

      .cls-7 {
        fill: #b58559;
      }

      .cls-8 {
        fill: #89334c;
      }

      .cls-9 {
        fill: #4e2d49;
      }

      .cls-10 {
        fill: #f3ff00;
      }

      .cls-11 {
        fill: #c43f62;
      }

      .cls-12 {
        fill: #43314c;
      }

      .cls-13 {
        fill: #614472;
      }
    </style>
  </defs>
  <title>jesustest2</title>
  <rect class="cls-1" width="350" height="499.97"/>
  <rect class="cls-2" x="350" width="350" height="500.35"/>
  <g>
    <rect class="cls-3" x="96.08" y="249.85" width="157.96" height="185.24" rx="12" ry="12"/>
    <ellipse class="cls-4" cx="175.07" cy="181.56" rx="88.36" ry="101.37"/>
    <path class="cls-5" d="M281.23,317.43c16.43-31.64,25.47-102.19,3.7-171.76-6.78-21.66-20.76-66.32-40.68-66.8-20.29-.48-36.85,45.07-31.9,55.07,3.66,7.39,18.6-5.63,23.78,3.94,5.68,10.48-9,32.14-2.77,47.31,5.49,13.41,22.26,9.51,24.53,21.95.63,3.45-.52,4.53-1.18,10.29-2,17.45,6.46,25.9,6.53,39.1.1,19.84-18.9,21.88-19.31,41-.33,15.5,11.77,34.24,22.25,34.2C270.07,331.69,275.17,329.09,281.23,317.43Z"/>
    <ellipse class="cls-6" cx="144.78" cy="168.44" rx="16.65" ry="27.91"/>
    <circle class="cls-6" cx="195.05" cy="168.44" r="16.42"/>
    <circle cx="195.05" cy="168.44" r="5.55"/>
    <circle cx="144.78" cy="168.44" r="8.37"/>
    <g>
      <path class="cls-4" d="M244.48,170.59a19.81,19.81,0,0,0,2.19.13,18.7,18.7,0,0,0-.24-37.4,19.8,19.8,0,0,0-2.19.16Z"/>
      <path class="cls-7" d="M245.63,160.44a8.51,8.51,0,0,0,.88,0,8.46,8.46,0,0,0-.11-16.92,6.4,6.4,0,0,0-.88.06Z"/>
    </g>
    <g>
      <ellipse class="cls-8" cx="175.74" cy="242.95" rx="45.64" ry="22.82"/>
      <ellipse class="cls-9" cx="175.74" cy="250.65" rx="27.75" ry="15.11"/>
    </g>
    <path class="cls-5" d="M91.51,213.71c11.34,41,44.76,70.68,84.23,70.68s72.89-29.7,84.22-70.68Z"/>
    <path class="cls-5" d="M177,344.86C241.29,344.71,248,215.69,248,215.69H106.07S112.74,345,177,344.86Z"/>
    <path class="cls-5" d="M107.8,82c-26.09,20.25-58.61,75.49-62.12,141.19-1.09,20.45-3.35,62.63,15,70.32,18.69,7.83,49.66-23.91,48.47-34-.87-7.48-19.22-2.14-20.77-12-1.7-10.77,19.33-23.38,18.75-38.25-.53-13.13-17.46-16-15.32-27.19.59-3.1,2-3.57,4.61-8.11,7.83-13.74,2.84-23.85,7.29-34.84,6.68-16.5,25.06-11.24,32-26.93,5.6-12.74.75-32.72-9-36.53C123.06,74.24,117.42,74.53,107.8,82Z"/>
    <ellipse class="cls-5" cx="180.72" cy="94.84" rx="82.51" ry="26.35"/>
    <g>
      <path class="cls-4" d="M88.13,133.47a17.64,17.64,0,0,0-2.19-.15,18.7,18.7,0,0,0,0,37.4,19.8,19.8,0,0,0,2.19-.14Z"/>
      <path class="cls-7" d="M86.91,143.61a8.46,8.46,0,1,0,0,16.82Z"/>
    </g>
    <path class="cls-10" d="M178.63,58.85c-37.44,0-67.78,3.51-67.78,7.84s30.34,7.85,67.78,7.85,67.78-3.51,67.78-7.85S216.06,58.85,178.63,58.85Zm0,13.89c-28.86,0-52.26-2.71-52.26-6s23.4-6,52.26-6,52.25,2.7,52.25,6S207.49,72.74,178.63,72.74Z"/>
    <path class="cls-4" d="M164.86,237.71a15.5,15.5,0,0,1-3.81-2c1,5,3.78,9.08,8,10.6,7.4,2.65,16.29-3.28,19.87-13.24a24.63,24.63,0,0,0,1.46-8.85C184.54,235,173.9,241,164.86,237.71Z"/>
    <rect class="cls-11" x="167.24" y="185.76" width="15.65" height="33.46" rx="7.83" ry="7.83"/>
    <rect class="cls-5" x="130.87" y="129.54" width="27.83" height="7.57" rx="3.78" ry="3.78"/>
    <rect class="cls-5" x="181.13" y="141.33" width="27.83" height="7.57" rx="3.78" ry="3.78"/>
  </g>
  <rect class="cls-3" x="446.08" y="254.85" width="157.96" height="185.24" rx="12" ry="12"/>
  <ellipse class="cls-4" cx="525.07" cy="186.56" rx="88.36" ry="101.37"/>
  <path class="cls-5" d="M631.23,322.43c16.43-31.64,25.47-102.19,3.7-171.76-6.78-21.66-20.76-66.32-40.68-66.8-20.29-.48-36.85,45.07-31.9,55.07,3.66,7.39,18.6-5.63,23.78,3.94,5.68,10.48-9,32.14-2.77,47.31,5.49,13.41,22.26,9.51,24.53,21.95.63,3.45-.52,4.53-1.18,10.29-2,17.45,6.46,25.9,6.53,39.1.1,19.84-18.9,21.88-19.31,41-.33,15.5,11.77,34.24,22.25,34.2C620.07,336.69,625.17,334.09,631.23,322.43Z"/>
  <ellipse class="cls-6" cx="494.78" cy="173.44" rx="16.65" ry="27.91"/>
  <circle class="cls-6" cx="545.05" cy="173.44" r="16.42"/>
  <circle cx="545.05" cy="173.44" r="5.55"/>
  <circle cx="494.78" cy="173.44" r="8.37"/>
  <g>
    <path class="cls-4" d="M594.48,175.59a19.81,19.81,0,0,0,2.19.13,18.7,18.7,0,0,0-.24-37.4,19.8,19.8,0,0,0-2.19.16Z"/>
    <path class="cls-7" d="M595.63,165.44a8.51,8.51,0,0,0,.88,0,8.46,8.46,0,0,0-.11-16.92,6.4,6.4,0,0,0-.88.06Z"/>
  </g>
  <g>
    <ellipse class="cls-8" cx="525.74" cy="247.95" rx="45.64" ry="22.82"/>
    <ellipse class="cls-9" cx="525.74" cy="255.65" rx="27.75" ry="15.11"/>
  </g>
  <path class="cls-5" d="M441.51,218.71c11.34,41,44.76,70.68,84.23,70.68s72.89-29.7,84.22-70.68Z"/>
  <path class="cls-5" d="M527,349.86c64.27-.15,71-129.17,71-129.17H456.07S462.74,350,527,349.86Z"/>
  <path class="cls-5" d="M457.8,87c-26.09,20.25-58.61,75.49-62.12,141.19-1.09,20.45-3.35,62.63,15,70.32,18.69,7.83,49.66-23.91,48.47-34-.87-7.48-19.22-2.14-20.77-12-1.7-10.77,19.33-23.38,18.75-38.25-.53-13.13-17.46-16-15.32-27.19.59-3.1,2-3.57,4.61-8.11,7.83-13.74,2.84-23.85,7.29-34.84,6.68-16.5,25.06-11.24,32-26.93,5.6-12.74.75-32.72-9-36.53C473.06,79.24,467.42,79.53,457.8,87Z"/>
  <ellipse class="cls-5" cx="530.72" cy="99.84" rx="82.51" ry="26.35"/>
  <g>
    <path class="cls-4" d="M438.13,138.47a17.64,17.64,0,0,0-2.19-.15,18.7,18.7,0,0,0,0,37.4,19.8,19.8,0,0,0,2.19-.14Z"/>
    <path class="cls-7" d="M436.91,148.61a8.46,8.46,0,1,0,0,16.82Z"/>
  </g>
  <path class="cls-10" d="M528.63,63.85c-37.44,0-67.78,3.51-67.78,7.84s30.34,7.85,67.78,7.85,67.78-3.51,67.78-7.85S566.06,63.85,528.63,63.85Zm0,13.89c-28.86,0-52.26-2.71-52.26-6s23.4-6,52.26-6,52.25,2.7,52.25,6S557.49,77.74,528.63,77.74Z"/>
  <rect class="cls-11" x="517.24" y="190.76" width="15.65" height="33.46" rx="7.83" ry="7.83"/>
  <rect class="cls-5" x="480.87" y="134.54" width="27.83" height="7.57" rx="3.78" ry="3.78"/>
  <rect class="cls-5" x="531.13" y="146.33" width="27.83" height="7.57" rx="3.78" ry="3.78"/>
  <g>
    <ellipse class="cls-12" cx="526.17" cy="245.33" rx="26.5" ry="10"/>
    <ellipse class="cls-13" cx="526.67" cy="250.33" rx="16" ry="4"/>
  </g>
</svg>
