<svg xmlns="http://www.w3.org/2000/svg" width="2800" height="500" viewBox="0 0 2800 500">
  <defs>
    <style>
      .cls-1 {
        fill: #c48a70;
      }

      .cls-2 {
        fill: #c8d1e2;
      }

      .cls-3 {
        fill: #d39676;
      }

      .cls-4 {
        fill: #fff;
      }

      .cls-5 {
        fill: #b5826b;
      }

      .cls-6 {
        fill: #af665a;
      }

      .cls-7 {
        fill: #b25846;
      }

      .cls-8 {
        fill: #c43f62;
      }

      .cls-9 {
        fill: #582b0e;
      }

      .cls-10 {
        fill: #70412c;
      }

      .cls-11 {
        fill: #9b9b9b;
      }
    </style>
  </defs>
  <title>spritesheet2</title>
  <g id="Sprite2">
    <rect class="cls-1" x="137.17" y="138.34" width="24" height="75" rx="12" ry="12"/>
    <polygon class="cls-2" points="149.17 374.31 201.17 189.34 97.17 189.34 149.17 374.31"/>
    <rect class="cls-3" x="123.17" y="23.34" width="62.86" height="139" rx="31.43" ry="31.43"/>
    <g>
      <circle class="cls-4" cx="168" cy="70.2" r="11.86"/>
      <circle cx="167.56" cy="70.3" r="3.29"/>
    </g>
    <path class="cls-5" d="M193.1,124.16a21.2,21.2,0,0,1,3.17,2.94,14.64,14.64,0,0,0-5.93-10.79c-6.33-4.74-15.05-3.8-19.48,2.11a12.68,12.68,0,0,0-2.4,5.89C175.07,118.64,185.36,118.36,193.1,124.16Z"/>
    <g>
      <path class="cls-6" d="M146.08,103.35a8.79,8.79,0,0,1-1.26.07A10.74,10.74,0,0,1,145,82a10.36,10.36,0,0,1,1.25.09Z"/>
      <path class="cls-7" d="M145.42,97.52a4.18,4.18,0,0,1-.5,0,4.86,4.86,0,0,1,.06-9.71,4.07,4.07,0,0,1,.5,0Z"/>
    </g>
    <path class="cls-8" d="M193.45,101.64l2.75-12.42a7.29,7.29,0,0,0-7.12-8.88h-5.51a7.29,7.29,0,0,0-7.12,8.88l2.75,12.42C180.89,109.27,191.76,109.27,193.45,101.64Z"/>
    <rect class="cls-9" x="149.64" y="50.34" width="27.83" height="7.57" rx="3.78" ry="3.78"/>
    <ellipse class="cls-10" cx="155.67" cy="23.83" rx="21.5" ry="4.51"/>
    <rect class="cls-2" x="53.06" y="252.5" width="111" height="25.74" rx="12" ry="12" transform="translate(-118.14 89.83) rotate(-30)"/>
    <g>
      <rect class="cls-2" x="86.62" y="341.26" width="42" height="123" rx="12" ry="12" transform="translate(149.99 -11.97) rotate(20.79)"/>
      <polygon class="cls-2" points="104.84 347.68 138.4 320.31 145.32 363.05 104.84 347.68"/>
      <rect class="cls-11" x="63.83" y="450.58" width="74" height="19" rx="7" ry="7" transform="translate(169.9 -5.83) rotate(20.79)"/>
    </g>
    <g>
      <rect class="cls-2" x="170.02" y="338.69" width="42" height="123" rx="12" ry="12" transform="translate(-122.53 86.62) rotate(-19.48)"/>
      <polygon class="cls-2" points="153.3 359.97 161.2 317.39 194.12 345.52 153.3 359.97"/>
      <rect class="cls-11" x="185.9" y="438.81" width="74" height="19" rx="7" ry="7" transform="translate(-136.75 100) rotate(-19.48)"/>
    </g>
    <rect class="cls-2" x="164.64" y="242.4" width="111" height="25.74" rx="12" ry="12" transform="translate(128.58 -69.14) rotate(25.01)"/>
    <rect class="cls-1" x="478.44" y="141.7" width="24" height="75" rx="12" ry="12"/>
    <polygon class="cls-2" points="490.44 377.66 542.44 192.7 438.44 192.7 490.44 377.66"/>
    <rect class="cls-3" x="464.44" y="26.7" width="62.86" height="139" rx="31.43" ry="31.43"/>
    <g>
      <circle class="cls-4" cx="509.26" cy="73.56" r="11.86"/>
      <circle cx="508.83" cy="73.66" r="3.29"/>
    </g>
    <path class="cls-5" d="M534.36,127.52a21.28,21.28,0,0,1,3.18,2.94,14.68,14.68,0,0,0-5.93-10.79c-6.33-4.74-15.05-3.8-19.48,2.11a12.54,12.54,0,0,0-2.4,5.89C516.34,122,526.63,121.72,534.36,127.52Z"/>
    <g>
      <path class="cls-6" d="M487.34,106.71c-.41,0-.83.07-1.25.07a10.74,10.74,0,0,1,.13-21.47,8.69,8.69,0,0,1,1.26.09Z"/>
      <path class="cls-7" d="M486.68,100.88l-.5,0a4.86,4.86,0,0,1,.06-9.71,4.36,4.36,0,0,1,.51,0Z"/>
    </g>
    <path class="cls-8" d="M534.72,105l2.75-12.42a7.3,7.3,0,0,0-7.13-8.88h-5.5a7.3,7.3,0,0,0-7.13,8.88L520.46,105C522.15,112.63,533,112.63,534.72,105Z"/>
    <rect class="cls-9" x="490.9" y="53.7" width="27.83" height="7.57" rx="3.78" ry="3.78"/>
    <ellipse class="cls-10" cx="496.94" cy="27.19" rx="21.5" ry="4.51"/>
    <rect class="cls-2" x="399.01" y="256.84" width="111" height="25.74" rx="12" ry="12" transform="translate(17.92 567.55) rotate(-64.99)"/>
    <g>
      <rect class="cls-2" x="417.58" y="325.02" width="42" height="123" rx="12" ry="12" transform="translate(232.48 -160.54) rotate(27.97)"/>
      <polygon class="cls-2" points="442.69 331.53 479.4 308.56 480.94 351.84 442.69 331.53"/>
      <rect class="cls-11" x="387.68" y="433.05" width="74" height="19" rx="7" ry="7" transform="translate(257.13 -147.48) rotate(27.97)"/>
    </g>
    <g>
      <rect class="cls-2" x="493.5" y="342.09" width="42" height="123" rx="12" ry="12" transform="translate(-21.16 28.54) rotate(-3.11)"/>
      <polygon class="cls-2" points="489.64 354.37 509.22 315.75 532.88 352.02 489.64 354.37"/>
      <rect class="cls-11" x="494.52" y="449.25" width="74" height="19" rx="7" ry="7" transform="translate(-24.13 29.54) rotate(-3.11)"/>
    </g>
    <rect class="cls-2" x="505.91" y="245.76" width="111" height="25.74" rx="12" ry="12" transform="translate(162.01 -213.12) rotate(25.01)"/>
    <rect class="cls-1" x="836.75" y="139.66" width="24" height="75" rx="12" ry="12"/>
    <polygon class="cls-2" points="848.75 375.62 900.75 190.66 796.75 190.66 848.75 375.62"/>
    <rect class="cls-3" x="822.75" y="24.66" width="62.86" height="139" rx="31.43" ry="31.43"/>
    <g>
      <circle class="cls-4" cx="867.57" cy="71.52" r="11.86"/>
      <circle cx="867.14" cy="71.62" r="3.29"/>
    </g>
    <path class="cls-5" d="M892.67,125.48a21.28,21.28,0,0,1,3.18,2.94,14.68,14.68,0,0,0-5.93-10.79c-6.33-4.75-15-3.8-19.48,2.11a12.44,12.44,0,0,0-2.4,5.89C874.65,120,884.94,119.68,892.67,125.48Z"/>
    <g>
      <path class="cls-6" d="M845.65,104.67c-.41,0-.83.07-1.25.07a10.74,10.74,0,0,1,.13-21.47,8.79,8.79,0,0,1,1.26.09Z"/>
      <path class="cls-7" d="M845,98.84l-.5,0a4.86,4.86,0,0,1,.06-9.71,4.07,4.07,0,0,1,.5,0Z"/>
    </g>
    <path class="cls-8" d="M893,103l2.75-12.42a7.3,7.3,0,0,0-7.13-8.88h-5.5A7.3,7.3,0,0,0,876,90.54L878.77,103C880.46,110.58,891.34,110.58,893,103Z"/>
    <rect class="cls-9" x="849.21" y="51.66" width="27.83" height="7.57" rx="3.78" ry="3.78"/>
    <ellipse class="cls-10" cx="855.25" cy="25.15" rx="21.5" ry="4.51"/>
    <rect class="cls-2" x="808.79" y="273.4" width="111" height="25.74" rx="12" ry="12" transform="translate(948.29 1192.86) rotate(-113.62)"/>
    <g>
      <rect class="cls-2" x="811.05" y="344.76" width="42" height="123" rx="12" ry="12" transform="translate(-3.93 8.15) rotate(-0.56)"/>
      <polygon class="cls-2" points="809.41 355.98 830.69 318.27 852.71 355.56 809.41 355.98"/>
      <rect class="cls-11" x="809.6" y="452.62" width="74" height="19" rx="7" ry="7" transform="translate(-4.48 8.3) rotate(-0.56)"/>
    </g>
    <g>
      <rect class="cls-2" x="781.05" y="308.46" width="42" height="123" rx="12" ry="12" transform="translate(559.65 -479.4) rotate(49.31)"/>
      <polygon class="cls-2" points="825.9 320.24 868.45 312.2 854.13 353.07 825.9 320.24"/>
      <rect class="cls-11" x="731.72" y="407.58" width="74" height="19" rx="7" ry="7" transform="translate(583.79 -437.72) rotate(49.31)"/>
    </g>
    <rect class="cls-1" x="1185.11" y="140.21" width="24" height="75" rx="12" ry="12"/>
    <polygon class="cls-2" points="1197.11 376.18 1249.11 191.21 1145.11 191.21 1197.11 376.18"/>
    <rect class="cls-3" x="1171.11" y="25.21" width="62.86" height="139" rx="31.43" ry="31.43"/>
    <g>
      <circle class="cls-4" cx="1215.93" cy="72.08" r="11.86"/>
      <circle cx="1215.5" cy="72.17" r="3.29"/>
    </g>
    <path class="cls-5" d="M1241,126a21.28,21.28,0,0,1,3.18,2.94,14.69,14.69,0,0,0-5.93-10.79c-6.33-4.74-15-3.8-19.48,2.11a12.58,12.58,0,0,0-2.4,5.89C1223,120.51,1233.3,120.24,1241,126Z"/>
    <g>
      <path class="cls-6" d="M1194,105.22a10.36,10.36,0,0,1-1.25.08,10.74,10.74,0,0,1,.13-21.48,10.38,10.38,0,0,1,1.26.09Z"/>
      <path class="cls-7" d="M1193.35,99.39a4.07,4.07,0,0,1-.5,0,4.86,4.86,0,0,1,.06-9.72,4.36,4.36,0,0,1,.51,0Z"/>
    </g>
    <path class="cls-8" d="M1241.39,103.51l2.75-12.42a7.3,7.3,0,0,0-7.13-8.88h-5.5a7.3,7.3,0,0,0-7.13,8.88l2.75,12.42C1228.82,111.14,1239.7,111.14,1241.39,103.51Z"/>
    <rect class="cls-9" x="1197.57" y="52.21" width="27.83" height="7.57" rx="3.78" ry="3.78"/>
    <ellipse class="cls-10" cx="1203.61" cy="25.7" rx="21.5" ry="4.51"/>
    <rect class="cls-2" x="1105.68" y="255.35" width="111" height="25.74" rx="12" ry="12" transform="translate(427.14 1207.09) rotate(-64.99)"/>
    <g>
      <rect class="cls-2" x="1232.01" y="319.32" width="42" height="123" rx="12" ry="12" transform="translate(93.99 990.52) rotate(-44.65)"/>
      <polygon class="cls-2" points="1201.76 360.46 1190.81 318.57 1232.56 330.03 1201.76 360.46"/>
      <rect class="cls-11" x="1265.32" y="401.32" width="74" height="19" rx="7" ry="7" transform="translate(87.14 1033.83) rotate(-44.65)"/>
    </g>
    <g>
      <rect class="cls-2" x="1130.95" y="338.04" width="42" height="123" rx="12" ry="12" transform="translate(278.88 -451.56) rotate(25.14)"/>
      <polygon class="cls-2" points="1153.36 344.42 1188.89 319.67 1192.56 362.81 1153.36 344.42"/>
      <rect class="cls-11" x="1103.83" y="446.69" width="74" height="19" rx="7" ry="7" transform="translate(301.89 -441.47) rotate(25.14)"/>
    </g>
    <rect class="cls-2" x="1157.63" y="232.22" width="111" height="25.74" rx="12" ry="12" transform="translate(217.4 -489.95) rotate(25.01)"/>
    <rect class="cls-1" x="1538.69" y="138.32" width="24" height="75" rx="12" ry="12"/>
    <polygon class="cls-2" points="1550.69 374.29 1602.69 189.32 1498.69 189.32 1550.69 374.29"/>
    <rect class="cls-3" x="1524.69" y="23.32" width="62.86" height="139" rx="31.43" ry="31.43"/>
    <g>
      <circle class="cls-4" cx="1569.52" cy="70.18" r="11.86"/>
      <circle cx="1569.09" cy="70.28" r="3.29"/>
    </g>
    <path class="cls-5" d="M1594.62,124.14a21.78,21.78,0,0,1,3.18,2.94,14.71,14.71,0,0,0-5.93-10.79c-6.33-4.74-15.06-3.8-19.49,2.11a12.56,12.56,0,0,0-2.39,5.89C1576.6,118.62,1586.89,118.34,1594.62,124.14Z"/>
    <g>
      <path class="cls-6" d="M1547.6,103.33a8.65,8.65,0,0,1-1.25.07,10.74,10.74,0,0,1,.13-21.47,10.21,10.21,0,0,1,1.25.09Z"/>
      <path class="cls-7" d="M1546.94,97.5a4.1,4.1,0,0,1-.5,0,4.86,4.86,0,0,1,.06-9.71,4.07,4.07,0,0,1,.5,0Z"/>
    </g>
    <path class="cls-8" d="M1595,101.62l2.76-12.42a7.3,7.3,0,0,0-7.13-8.88h-5.5A7.3,7.3,0,0,0,1578,89.2l2.75,12.42C1582.41,109.25,1593.28,109.25,1595,101.62Z"/>
    <rect class="cls-9" x="1551.16" y="50.32" width="27.83" height="7.57" rx="3.78" ry="3.78"/>
    <ellipse class="cls-10" cx="1557.19" cy="23.81" rx="21.5" ry="4.51"/>
    <rect class="cls-2" x="1454.58" y="252.48" width="111" height="25.74" rx="12" ry="12" transform="translate(69.64 790.59) rotate(-30)"/>
    <g>
      <rect class="cls-2" x="1488.15" y="341.24" width="42" height="123" rx="12" ry="12" transform="translate(241.28 -509.53) rotate(20.79)"/>
      <polygon class="cls-2" points="1506.37 347.66 1539.92 320.29 1546.85 363.04 1506.37 347.66"/>
      <rect class="cls-11" x="1465.35" y="450.56" width="74" height="19" rx="7" ry="7" transform="translate(261.18 -503.38) rotate(20.79)"/>
    </g>
    <g>
      <rect class="cls-2" x="1571.54" y="338.67" width="42" height="123" rx="12" ry="12" transform="translate(-42.28 554.03) rotate(-19.48)"/>
      <polygon class="cls-2" points="1554.82 359.95 1562.72 317.37 1595.64 345.5 1554.82 359.95"/>
      <rect class="cls-11" x="1587.42" y="438.79" width="74" height="19" rx="7" ry="7" transform="translate(-56.51 567.41) rotate(-19.48)"/>
    </g>
    <rect class="cls-2" x="1566.16" y="242.38" width="111" height="25.74" rx="12" ry="12" transform="translate(260.02 -661.73) rotate(25.01)"/>
    <rect class="cls-1" x="1888.48" y="142.68" width="24" height="75" rx="12" ry="12"/>
    <polygon class="cls-2" points="1900.48 378.64 1952.48 193.68 1848.48 193.68 1900.48 378.64"/>
    <rect class="cls-3" x="1874.48" y="27.68" width="62.86" height="139" rx="31.43" ry="31.43"/>
    <g>
      <circle class="cls-4" cx="1919.3" cy="74.54" r="11.86"/>
      <circle cx="1918.87" cy="74.64" r="3.29"/>
    </g>
    <path class="cls-5" d="M1944.41,128.5a21.7,21.7,0,0,1,3.17,2.94,14.64,14.64,0,0,0-5.93-10.79c-6.33-4.74-15.05-3.8-19.48,2.11a12.64,12.64,0,0,0-2.4,5.89C1926.38,123,1936.67,122.7,1944.41,128.5Z"/>
    <g>
      <path class="cls-6" d="M1897.38,107.69c-.41,0-.82.07-1.25.07a10.74,10.74,0,0,1,.14-21.47,10.36,10.36,0,0,1,1.25.09Z"/>
      <path class="cls-7" d="M1896.73,101.86l-.51,0a4.86,4.86,0,0,1,.07-9.71,4.19,4.19,0,0,1,.5,0Z"/>
    </g>
    <path class="cls-8" d="M1944.76,106l2.75-12.42a7.3,7.3,0,0,0-7.12-8.88h-5.51a7.3,7.3,0,0,0-7.13,8.88l2.76,12.42C1932.2,113.61,1943.07,113.61,1944.76,106Z"/>
    <rect class="cls-9" x="1900.95" y="54.68" width="27.83" height="7.57" rx="3.78" ry="3.78"/>
    <ellipse class="cls-10" cx="1906.98" cy="28.17" rx="21.5" ry="4.51"/>
    <rect class="cls-2" x="1809.05" y="257.82" width="111" height="25.74" rx="12" ry="12" transform="translate(830.88 1845.92) rotate(-64.99)"/>
    <g>
      <rect class="cls-2" x="1827.62" y="326" width="42" height="123" rx="12" ry="12" transform="translate(397.61 -821.68) rotate(27.97)"/>
      <polygon class="cls-2" points="1852.74 332.51 1889.44 309.54 1890.98 352.82 1852.74 332.51"/>
      <rect class="cls-11" x="1797.72" y="434.03" width="74" height="19" rx="7" ry="7" transform="translate(422.26 -808.62) rotate(27.97)"/>
    </g>
    <g>
      <rect class="cls-2" x="1903.54" y="343.07" width="42" height="123" rx="12" ry="12" transform="translate(-19.13 105.11) rotate(-3.11)"/>
      <polygon class="cls-2" points="1899.68 355.35 1919.26 316.73 1942.92 353 1899.68 355.35"/>
      <rect class="cls-11" x="1904.56" y="450.23" width="74" height="19" rx="7" ry="7" transform="translate(-22.1 106.12) rotate(-3.11)"/>
    </g>
    <rect class="cls-2" x="1915.95" y="246.74" width="111" height="25.74" rx="12" ry="12" transform="translate(294.66 -809.22) rotate(25.01)"/>
    <rect class="cls-1" x="2237.81" y="137.64" width="24" height="75" rx="12" ry="12"/>
    <polygon class="cls-2" points="2249.81 373.6 2301.81 188.64 2197.81 188.64 2249.81 373.6"/>
    <rect class="cls-3" x="2223.81" y="22.64" width="62.86" height="139" rx="31.43" ry="31.43"/>
    <g>
      <circle class="cls-4" cx="2268.63" cy="69.5" r="11.86"/>
      <circle cx="2268.2" cy="69.6" r="3.29"/>
    </g>
    <path class="cls-5" d="M2293.74,123.46a21.7,21.7,0,0,1,3.17,2.94,14.64,14.64,0,0,0-5.93-10.79c-6.33-4.75-15.05-3.8-19.48,2.11a12.64,12.64,0,0,0-2.4,5.89C2275.71,117.94,2286,117.66,2293.74,123.46Z"/>
    <g>
      <path class="cls-6" d="M2246.72,102.65c-.42,0-.83.07-1.26.07a10.74,10.74,0,0,1,.14-21.47,8.66,8.66,0,0,1,1.25.09Z"/>
      <path class="cls-7" d="M2246.06,96.82l-.51,0a4.86,4.86,0,0,1,.07-9.71,4.19,4.19,0,0,1,.5,0Z"/>
    </g>
    <path class="cls-8" d="M2294.09,100.94l2.75-12.42a7.3,7.3,0,0,0-7.12-8.88h-5.51a7.3,7.3,0,0,0-7.13,8.88l2.76,12.42C2281.53,108.56,2292.4,108.56,2294.09,100.94Z"/>
    <rect class="cls-9" x="2250.28" y="49.64" width="27.83" height="7.57" rx="3.78" ry="3.78"/>
    <ellipse class="cls-10" cx="2256.31" cy="23.13" rx="21.5" ry="4.51"/>
    <rect class="cls-2" x="2209.86" y="271.38" width="111" height="25.74" rx="12" ry="12" transform="translate(2912.56 2473.72) rotate(-113.62)"/>
    <g>
      <rect class="cls-2" x="2212.12" y="342.74" width="42" height="123" rx="12" ry="12" transform="translate(-3.84 21.85) rotate(-0.56)"/>
      <polygon class="cls-2" points="2210.47 353.96 2231.76 316.25 2253.77 353.54 2210.47 353.96"/>
      <rect class="cls-11" x="2210.66" y="450.6" width="74" height="19" rx="7" ry="7" transform="translate(-4.39 21.99) rotate(-0.56)"/>
    </g>
    <g>
      <rect class="cls-2" x="2182.12" y="306.44" width="42" height="123" rx="12" ry="12" transform="translate(1045.73 -1542.45) rotate(49.31)"/>
      <polygon class="cls-2" points="2226.97 318.22 2269.52 310.19 2255.2 351.05 2226.97 318.22"/>
      <rect class="cls-11" x="2132.78" y="405.56" width="74" height="19" rx="7" ry="7" transform="translate(1069.86 -1500.77) rotate(49.31)"/>
    </g>
    <rect class="cls-1" x="2585.13" y="140.19" width="24" height="75" rx="12" ry="12"/>
    <polygon class="cls-2" points="2597.13 376.16 2649.13 191.19 2545.13 191.19 2597.13 376.16"/>
    <rect class="cls-3" x="2571.13" y="25.19" width="62.86" height="139" rx="31.43" ry="31.43"/>
    <g>
      <circle class="cls-4" cx="2615.95" cy="72.06" r="11.86"/>
      <circle cx="2615.52" cy="72.15" r="3.29"/>
    </g>
    <path class="cls-5" d="M2641.05,126a20.71,20.71,0,0,1,3.18,2.93,14.69,14.69,0,0,0-5.93-10.79c-6.33-4.74-15.05-3.8-19.48,2.11a12.58,12.58,0,0,0-2.4,5.89C2623,120.49,2633.32,120.22,2641.05,126Z"/>
    <g>
      <path class="cls-6" d="M2594,105.2a10.36,10.36,0,0,1-1.25.08,10.74,10.74,0,0,1,.13-21.48,10.38,10.38,0,0,1,1.26.09Z"/>
      <path class="cls-7" d="M2593.38,99.37a4.36,4.36,0,0,1-.51,0,4.86,4.86,0,0,1,.06-9.72,4.36,4.36,0,0,1,.51,0Z"/>
    </g>
    <path class="cls-8" d="M2641.41,103.49l2.75-12.42a7.3,7.3,0,0,0-7.13-8.88h-5.5a7.3,7.3,0,0,0-7.13,8.88l2.76,12.42C2628.85,111.12,2639.72,111.12,2641.41,103.49Z"/>
    <rect class="cls-9" x="2597.59" y="52.19" width="27.83" height="7.57" rx="3.78" ry="3.78"/>
    <ellipse class="cls-10" cx="2603.63" cy="25.68" rx="21.5" ry="4.51"/>
    <rect class="cls-2" x="2505.7" y="255.33" width="111" height="25.74" rx="12" ry="12" transform="translate(1235.23 2475.8) rotate(-64.99)"/>
    <g>
      <rect class="cls-2" x="2632.03" y="319.3" width="42" height="123" rx="12" ry="12" transform="translate(498.06 1974.44) rotate(-44.65)"/>
      <polygon class="cls-2" points="2601.78 360.44 2590.83 318.55 2632.58 330.01 2601.78 360.44"/>
      <rect class="cls-11" x="2665.34" y="401.3" width="74" height="19" rx="7" ry="7" transform="translate(491.21 2017.75) rotate(-44.65)"/>
    </g>
    <g>
      <rect class="cls-2" x="2530.97" y="338.02" width="42" height="123" rx="12" ry="12" transform="translate(411.5 -1046.36) rotate(25.14)"/>
      <polygon class="cls-2" points="2553.38 344.4 2588.91 319.65 2592.58 362.79 2553.38 344.4"/>
      <rect class="cls-11" x="2503.86" y="446.67" width="74" height="19" rx="7" ry="7" transform="translate(434.51 -1036.27) rotate(25.14)"/>
    </g>
    <rect class="cls-2" x="2557.65" y="232.2" width="111" height="25.74" rx="12" ry="12" transform="matrix(0.91, 0.42, -0.42, 0.91, 348.7, -1081.91)"/>
  </g>
</svg>
