<svg id="Sprite2" xmlns="http://www.w3.org/2000/svg" width="2800" height="1000" viewBox="0 0 2800 1000">
  <defs>
    <style>
      .cls-1 {
        fill: #5b5b06;
      }

      .cls-2 {
        fill: #f88;
      }

      .cls-3 {
        fill: red;
      }

      .cls-4 {
        fill: #00e7ff;
      }

      .cls-5 {
        fill: #0019fc;
      }

      .cls-6 {
        fill: #00f970;
      }

      .cls-7 {
        fill: #b400f7;
      }

      .cls-8 {
        fill: #385a8c;
      }

      .cls-9 {
        fill: #ff9100;
      }

      .cls-10 {
        fill: #ff0;
      }

      .cls-11 {
        fill: #c48a70;
      }

      .cls-12 {
        fill: #c8d1e2;
      }

      .cls-13 {
        fill: #d39676;
      }

      .cls-14 {
        fill: #fff;
      }

      .cls-15 {
        fill: #b5826b;
      }

      .cls-16 {
        fill: #af665a;
      }

      .cls-17 {
        fill: #b25846;
      }

      .cls-18 {
        fill: #c43f62;
      }

      .cls-19 {
        fill: #582b0e;
      }

      .cls-20 {
        fill: #70412c;
      }

      .cls-21 {
        fill: #9b9b9b;
      }

      .cls-22 {
        fill: #b58559;
      }

      .cls-23 {
        fill: #43314c;
      }

      .cls-24 {
        fill: #614472;
      }
    </style>
  </defs>
  <title>Spritesheet_v3</title>
  <rect class="cls-1" x="349.67" y="499.65" width="350" height="500.35"/>
  <rect class="cls-2" y="499.65" width="350" height="500.35"/>
  <rect class="cls-3" y="-0.03" width="350" height="500"/>
  <rect class="cls-4" x="1049" y="-0.03" width="350" height="500"/>
  <rect class="cls-5" x="1399.1" y="-0.03" width="350" height="500"/>
  <rect class="cls-6" x="1750.06" y="-0.35" width="350" height="500"/>
  <rect class="cls-7" x="2100.06" y="0.35" width="350" height="500"/>
  <rect class="cls-8" x="2450" y="0.35" width="350" height="500"/>
  <rect class="cls-9" x="350" y="-0.03" width="350" height="500"/>
  <rect class="cls-10" x="699" y="-0.03" width="350" height="500"/>
  <rect class="cls-11" x="137.17" y="138.34" width="24" height="75" rx="12" ry="12"/>
  <polygon class="cls-12" points="149.17 374.31 201.17 189.34 97.17 189.34 149.17 374.31"/>
  <rect class="cls-13" x="123.17" y="23.34" width="62.86" height="139" rx="31.43" ry="31.43"/>
  <g>
    <circle class="cls-14" cx="168" cy="70.2" r="11.86"/>
    <circle cx="167.56" cy="70.3" r="3.29"/>
  </g>
  <path class="cls-15" d="M193.1,124.16a21.2,21.2,0,0,1,3.17,2.94,14.64,14.64,0,0,0-5.93-10.79c-6.33-4.74-15.05-3.8-19.48,2.11a12.68,12.68,0,0,0-2.4,5.89C175.07,118.64,185.36,118.36,193.1,124.16Z"/>
  <g>
    <path class="cls-16" d="M146.08,103.35a8.79,8.79,0,0,1-1.26.07A10.74,10.74,0,0,1,145,82a10.36,10.36,0,0,1,1.25.09Z"/>
    <path class="cls-17" d="M145.42,97.52a4.18,4.18,0,0,1-.5,0,4.86,4.86,0,0,1,.06-9.71,4.07,4.07,0,0,1,.5,0Z"/>
  </g>
  <path class="cls-18" d="M193.45,101.64l2.75-12.42a7.29,7.29,0,0,0-7.12-8.88h-5.51a7.29,7.29,0,0,0-7.12,8.88l2.75,12.42C180.89,109.27,191.76,109.27,193.45,101.64Z"/>
  <rect class="cls-19" x="149.64" y="50.34" width="27.83" height="7.57" rx="3.78" ry="3.78"/>
  <ellipse class="cls-20" cx="155.67" cy="23.83" rx="21.5" ry="4.51"/>
  <rect class="cls-12" x="53.06" y="252.5" width="111" height="25.74" rx="12" ry="12" transform="translate(-118.14 89.83) rotate(-30)"/>
  <g>
    <rect class="cls-12" x="86.62" y="341.26" width="42" height="123" rx="12" ry="12" transform="translate(149.99 -11.97) rotate(20.79)"/>
    <polygon class="cls-12" points="104.84 347.68 138.4 320.31 145.32 363.05 104.84 347.68"/>
    <rect class="cls-21" x="63.83" y="450.58" width="74" height="19" rx="7" ry="7" transform="translate(169.9 -5.83) rotate(20.79)"/>
  </g>
  <g>
    <rect class="cls-12" x="170.02" y="338.69" width="42" height="123" rx="12" ry="12" transform="translate(-122.53 86.62) rotate(-19.48)"/>
    <polygon class="cls-12" points="153.3 359.97 161.2 317.39 194.12 345.52 153.3 359.97"/>
    <rect class="cls-21" x="185.9" y="438.81" width="74" height="19" rx="7" ry="7" transform="translate(-136.75 100) rotate(-19.48)"/>
  </g>
  <rect class="cls-12" x="164.64" y="242.4" width="111" height="25.74" rx="12" ry="12" transform="translate(128.58 -69.14) rotate(25.01)"/>
  <rect class="cls-11" x="478.44" y="141.7" width="24" height="75" rx="12" ry="12"/>
  <polygon class="cls-12" points="490.44 377.66 542.44 192.7 438.44 192.7 490.44 377.66"/>
  <rect class="cls-13" x="464.44" y="26.7" width="62.86" height="139" rx="31.43" ry="31.43"/>
  <g>
    <circle class="cls-14" cx="509.26" cy="73.56" r="11.86"/>
    <circle cx="508.83" cy="73.66" r="3.29"/>
  </g>
  <path class="cls-15" d="M534.36,127.52a21.28,21.28,0,0,1,3.18,2.94,14.68,14.68,0,0,0-5.93-10.79c-6.33-4.74-15.05-3.8-19.48,2.11a12.54,12.54,0,0,0-2.4,5.89C516.34,122,526.63,121.72,534.36,127.52Z"/>
  <g>
    <path class="cls-16" d="M487.34,106.71c-.41,0-.83.07-1.25.07a10.74,10.74,0,0,1,.13-21.47,8.69,8.69,0,0,1,1.26.09Z"/>
    <path class="cls-17" d="M486.68,100.88l-.5,0a4.86,4.86,0,0,1,.06-9.71,4.36,4.36,0,0,1,.51,0Z"/>
  </g>
  <path class="cls-18" d="M534.72,105l2.75-12.42a7.3,7.3,0,0,0-7.13-8.88h-5.5a7.3,7.3,0,0,0-7.13,8.88L520.46,105C522.15,112.63,533,112.63,534.72,105Z"/>
  <rect class="cls-19" x="490.9" y="53.7" width="27.83" height="7.57" rx="3.78" ry="3.78"/>
  <ellipse class="cls-20" cx="496.94" cy="27.19" rx="21.5" ry="4.51"/>
  <rect class="cls-12" x="399.01" y="256.84" width="111" height="25.74" rx="12" ry="12" transform="translate(17.92 567.55) rotate(-64.99)"/>
  <g>
    <rect class="cls-12" x="417.58" y="325.02" width="42" height="123" rx="12" ry="12" transform="translate(232.48 -160.54) rotate(27.97)"/>
    <polygon class="cls-12" points="442.69 331.53 479.4 308.56 480.94 351.84 442.69 331.53"/>
    <rect class="cls-21" x="387.68" y="433.05" width="74" height="19" rx="7" ry="7" transform="translate(257.13 -147.48) rotate(27.97)"/>
  </g>
  <g>
    <rect class="cls-12" x="493.5" y="342.09" width="42" height="123" rx="12" ry="12" transform="translate(-21.16 28.54) rotate(-3.11)"/>
    <polygon class="cls-12" points="489.64 354.37 509.22 315.75 532.88 352.02 489.64 354.37"/>
    <rect class="cls-21" x="494.52" y="449.25" width="74" height="19" rx="7" ry="7" transform="translate(-24.13 29.54) rotate(-3.11)"/>
  </g>
  <rect class="cls-12" x="505.91" y="245.76" width="111" height="25.74" rx="12" ry="12" transform="translate(162.01 -213.12) rotate(25.01)"/>
  <rect class="cls-11" x="836.75" y="139.66" width="24" height="75" rx="12" ry="12"/>
  <polygon class="cls-12" points="848.75 375.62 900.75 190.66 796.75 190.66 848.75 375.62"/>
  <rect class="cls-13" x="822.75" y="24.66" width="62.86" height="139" rx="31.43" ry="31.43"/>
  <g>
    <circle class="cls-14" cx="867.57" cy="71.52" r="11.86"/>
    <circle cx="867.14" cy="71.62" r="3.29"/>
  </g>
  <path class="cls-15" d="M892.67,125.48a21.28,21.28,0,0,1,3.18,2.94,14.68,14.68,0,0,0-5.93-10.79c-6.33-4.75-15-3.8-19.48,2.11a12.44,12.44,0,0,0-2.4,5.89C874.65,120,884.94,119.68,892.67,125.48Z"/>
  <g>
    <path class="cls-16" d="M845.65,104.67c-.41,0-.83.07-1.25.07a10.74,10.74,0,0,1,.13-21.47,8.79,8.79,0,0,1,1.26.09Z"/>
    <path class="cls-17" d="M845,98.84l-.5,0a4.86,4.86,0,0,1,.06-9.71,4.07,4.07,0,0,1,.5,0Z"/>
  </g>
  <path class="cls-18" d="M893,103l2.75-12.42a7.3,7.3,0,0,0-7.13-8.88h-5.5A7.3,7.3,0,0,0,876,90.54L878.77,103C880.46,110.58,891.34,110.58,893,103Z"/>
  <rect class="cls-19" x="849.21" y="51.66" width="27.83" height="7.57" rx="3.78" ry="3.78"/>
  <ellipse class="cls-20" cx="855.25" cy="25.15" rx="21.5" ry="4.51"/>
  <rect class="cls-12" x="808.79" y="273.4" width="111" height="25.74" rx="12" ry="12" transform="translate(948.29 1192.86) rotate(-113.62)"/>
  <g>
    <rect class="cls-12" x="817.72" y="344.76" width="42" height="123" rx="12" ry="12" transform="translate(-3.93 8.22) rotate(-0.56)"/>
    <polygon class="cls-12" points="816.08 355.98 837.36 318.27 859.38 355.56 816.08 355.98"/>
    <rect class="cls-21" x="816.27" y="452.62" width="74" height="19" rx="7" ry="7" transform="translate(-4.48 8.36) rotate(-0.56)"/>
  </g>
  <g>
    <rect class="cls-12" x="786.05" y="305.12" width="42" height="123" rx="12" ry="12" transform="translate(558.87 -484.35) rotate(49.31)"/>
    <polygon class="cls-12" points="830.9 316.9 873.45 308.87 859.13 349.74 830.9 316.9"/>
    <rect class="cls-21" x="736.72" y="404.25" width="74" height="19" rx="7" ry="7" transform="translate(583 -442.67) rotate(49.31)"/>
  </g>
  <rect class="cls-11" x="1185.11" y="140.21" width="24" height="75" rx="12" ry="12"/>
  <polygon class="cls-12" points="1197.11 376.18 1249.11 191.21 1145.11 191.21 1197.11 376.18"/>
  <rect class="cls-13" x="1171.11" y="25.21" width="62.86" height="139" rx="31.43" ry="31.43"/>
  <g>
    <circle class="cls-14" cx="1215.93" cy="72.08" r="11.86"/>
    <circle cx="1215.5" cy="72.17" r="3.29"/>
  </g>
  <path class="cls-15" d="M1241,126a21.28,21.28,0,0,1,3.18,2.94,14.69,14.69,0,0,0-5.93-10.79c-6.33-4.74-15-3.8-19.48,2.11a12.58,12.58,0,0,0-2.4,5.89C1223,120.51,1233.3,120.24,1241,126Z"/>
  <g>
    <path class="cls-16" d="M1194,105.22a10.36,10.36,0,0,1-1.25.08,10.74,10.74,0,0,1,.13-21.48,10.38,10.38,0,0,1,1.26.09Z"/>
    <path class="cls-17" d="M1193.35,99.39a4.07,4.07,0,0,1-.5,0,4.86,4.86,0,0,1,.06-9.72,4.36,4.36,0,0,1,.51,0Z"/>
  </g>
  <path class="cls-18" d="M1241.39,103.51l2.75-12.42a7.3,7.3,0,0,0-7.13-8.88h-5.5a7.3,7.3,0,0,0-7.13,8.88l2.75,12.42C1228.82,111.14,1239.7,111.14,1241.39,103.51Z"/>
  <rect class="cls-19" x="1197.57" y="52.21" width="27.83" height="7.57" rx="3.78" ry="3.78"/>
  <ellipse class="cls-20" cx="1203.61" cy="25.7" rx="21.5" ry="4.51"/>
  <rect class="cls-12" x="1105.68" y="255.35" width="111" height="25.74" rx="12" ry="12" transform="translate(427.14 1207.09) rotate(-64.99)"/>
  <g>
    <rect class="cls-12" x="1232.01" y="319.32" width="42" height="123" rx="12" ry="12" transform="translate(93.99 990.52) rotate(-44.65)"/>
    <polygon class="cls-12" points="1201.76 360.46 1190.81 318.57 1232.56 330.03 1201.76 360.46"/>
    <rect class="cls-21" x="1265.32" y="401.32" width="74" height="19" rx="7" ry="7" transform="translate(87.14 1033.83) rotate(-44.65)"/>
  </g>
  <g>
    <rect class="cls-12" x="1140.95" y="345.04" width="42" height="123" rx="12" ry="12" transform="translate(282.8 -455.14) rotate(25.14)"/>
    <polygon class="cls-12" points="1163.36 351.42 1198.89 326.67 1202.56 369.81 1163.36 351.42"/>
    <rect class="cls-21" x="1113.83" y="453.69" width="74" height="19" rx="7" ry="7" transform="translate(305.81 -445.05) rotate(25.14)"/>
  </g>
  <rect class="cls-12" x="1157.63" y="232.22" width="111" height="25.74" rx="12" ry="12" transform="translate(217.4 -489.95) rotate(25.01)"/>
  <rect class="cls-11" x="1538.69" y="138.32" width="24" height="75" rx="12" ry="12"/>
  <polygon class="cls-12" points="1550.69 374.29 1602.69 189.32 1498.69 189.32 1550.69 374.29"/>
  <rect class="cls-13" x="1524.69" y="23.32" width="62.86" height="139" rx="31.43" ry="31.43"/>
  <g>
    <circle class="cls-14" cx="1569.52" cy="70.18" r="11.86"/>
    <circle cx="1569.09" cy="70.28" r="3.29"/>
  </g>
  <path class="cls-15" d="M1594.62,124.14a21.78,21.78,0,0,1,3.18,2.94,14.71,14.71,0,0,0-5.93-10.79c-6.33-4.74-15.06-3.8-19.49,2.11a12.56,12.56,0,0,0-2.39,5.89C1576.6,118.62,1586.89,118.34,1594.62,124.14Z"/>
  <g>
    <path class="cls-16" d="M1547.6,103.33a8.65,8.65,0,0,1-1.25.07,10.74,10.74,0,0,1,.13-21.47,10.21,10.21,0,0,1,1.25.09Z"/>
    <path class="cls-17" d="M1546.94,97.5a4.1,4.1,0,0,1-.5,0,4.86,4.86,0,0,1,.06-9.71,4.07,4.07,0,0,1,.5,0Z"/>
  </g>
  <path class="cls-18" d="M1595,101.62l2.76-12.42a7.3,7.3,0,0,0-7.13-8.88h-5.5A7.3,7.3,0,0,0,1578,89.2l2.75,12.42C1582.41,109.25,1593.28,109.25,1595,101.62Z"/>
  <rect class="cls-19" x="1551.16" y="50.32" width="27.83" height="7.57" rx="3.78" ry="3.78"/>
  <ellipse class="cls-20" cx="1557.19" cy="23.81" rx="21.5" ry="4.51"/>
  <rect class="cls-12" x="1454.58" y="252.48" width="111" height="25.74" rx="12" ry="12" transform="translate(69.64 790.59) rotate(-30)"/>
  <g>
    <rect class="cls-12" x="1491.48" y="351.24" width="42" height="123" rx="12" ry="12" transform="translate(245.04 -510.06) rotate(20.79)"/>
    <polygon class="cls-12" points="1509.7 357.66 1543.25 330.29 1550.18 373.04 1509.7 357.66"/>
    <rect class="cls-21" x="1468.69" y="460.56" width="74" height="19" rx="7" ry="7" transform="translate(264.95 -503.91) rotate(20.79)"/>
  </g>
  <g>
    <rect class="cls-12" x="1569.88" y="338.67" width="42" height="123" rx="12" ry="12" transform="translate(-42.38 553.47) rotate(-19.48)"/>
    <polygon class="cls-12" points="1553.15 359.95 1561.06 317.37 1593.97 345.5 1553.15 359.95"/>
    <rect class="cls-21" x="1585.75" y="438.79" width="74" height="19" rx="7" ry="7" transform="translate(-56.6 566.85) rotate(-19.48)"/>
  </g>
  <rect class="cls-12" x="1566.16" y="242.38" width="111" height="25.74" rx="12" ry="12" transform="translate(260.02 -661.73) rotate(25.01)"/>
  <rect class="cls-11" x="1888.48" y="142.68" width="24" height="75" rx="12" ry="12"/>
  <polygon class="cls-12" points="1900.48 378.64 1952.48 193.68 1848.48 193.68 1900.48 378.64"/>
  <rect class="cls-13" x="1874.48" y="27.68" width="62.86" height="139" rx="31.43" ry="31.43"/>
  <g>
    <circle class="cls-14" cx="1919.3" cy="74.54" r="11.86"/>
    <circle cx="1918.87" cy="74.64" r="3.29"/>
  </g>
  <path class="cls-15" d="M1944.41,128.5a21.7,21.7,0,0,1,3.17,2.94,14.64,14.64,0,0,0-5.93-10.79c-6.33-4.74-15.05-3.8-19.48,2.11a12.64,12.64,0,0,0-2.4,5.89C1926.38,123,1936.67,122.7,1944.41,128.5Z"/>
  <g>
    <path class="cls-16" d="M1897.38,107.69c-.41,0-.82.07-1.25.07a10.74,10.74,0,0,1,.14-21.47,10.36,10.36,0,0,1,1.25.09Z"/>
    <path class="cls-17" d="M1896.73,101.86l-.51,0a4.86,4.86,0,0,1,.07-9.71,4.19,4.19,0,0,1,.5,0Z"/>
  </g>
  <path class="cls-18" d="M1944.76,106l2.75-12.42a7.3,7.3,0,0,0-7.12-8.88h-5.51a7.3,7.3,0,0,0-7.13,8.88l2.76,12.42C1932.2,113.61,1943.07,113.61,1944.76,106Z"/>
  <rect class="cls-19" x="1900.95" y="54.68" width="27.83" height="7.57" rx="3.78" ry="3.78"/>
  <ellipse class="cls-20" cx="1906.98" cy="28.17" rx="21.5" ry="4.51"/>
  <rect class="cls-12" x="1809.05" y="257.82" width="111" height="25.74" rx="12" ry="12" transform="translate(830.88 1845.92) rotate(-64.99)"/>
  <g>
    <rect class="cls-12" x="1827.62" y="326" width="42" height="123" rx="12" ry="12" transform="translate(397.61 -821.68) rotate(27.97)"/>
    <polygon class="cls-12" points="1852.74 332.51 1889.44 309.54 1890.98 352.82 1852.74 332.51"/>
    <rect class="cls-21" x="1797.72" y="434.03" width="74" height="19" rx="7" ry="7" transform="translate(422.26 -808.62) rotate(27.97)"/>
  </g>
  <g>
    <rect class="cls-12" x="1903.54" y="343.07" width="42" height="123" rx="12" ry="12" transform="translate(-19.13 105.11) rotate(-3.11)"/>
    <polygon class="cls-12" points="1899.68 355.35 1919.26 316.73 1942.92 353 1899.68 355.35"/>
    <rect class="cls-21" x="1904.56" y="450.23" width="74" height="19" rx="7" ry="7" transform="translate(-22.1 106.12) rotate(-3.11)"/>
  </g>
  <rect class="cls-12" x="1915.95" y="246.74" width="111" height="25.74" rx="12" ry="12" transform="translate(294.66 -809.22) rotate(25.01)"/>
  <rect class="cls-11" x="2237.81" y="137.64" width="24" height="75" rx="12" ry="12"/>
  <polygon class="cls-12" points="2249.81 373.6 2301.81 188.64 2197.81 188.64 2249.81 373.6"/>
  <rect class="cls-13" x="2223.81" y="22.64" width="62.86" height="139" rx="31.43" ry="31.43"/>
  <g>
    <circle class="cls-14" cx="2268.63" cy="69.5" r="11.86"/>
    <circle cx="2268.2" cy="69.6" r="3.29"/>
  </g>
  <path class="cls-15" d="M2293.74,123.46a21.7,21.7,0,0,1,3.17,2.94,14.64,14.64,0,0,0-5.93-10.79c-6.33-4.75-15.05-3.8-19.48,2.11a12.64,12.64,0,0,0-2.4,5.89C2275.71,117.94,2286,117.66,2293.74,123.46Z"/>
  <g>
    <path class="cls-16" d="M2246.72,102.65c-.42,0-.83.07-1.26.07a10.74,10.74,0,0,1,.14-21.47,8.66,8.66,0,0,1,1.25.09Z"/>
    <path class="cls-17" d="M2246.06,96.82l-.51,0a4.86,4.86,0,0,1,.07-9.71,4.19,4.19,0,0,1,.5,0Z"/>
  </g>
  <path class="cls-18" d="M2294.09,100.94l2.75-12.42a7.3,7.3,0,0,0-7.12-8.88h-5.51a7.3,7.3,0,0,0-7.13,8.88l2.76,12.42C2281.53,108.56,2292.4,108.56,2294.09,100.94Z"/>
  <rect class="cls-19" x="2250.28" y="49.64" width="27.83" height="7.57" rx="3.78" ry="3.78"/>
  <ellipse class="cls-20" cx="2256.31" cy="23.13" rx="21.5" ry="4.51"/>
  <rect class="cls-12" x="2209.86" y="271.38" width="111" height="25.74" rx="12" ry="12" transform="translate(2912.56 2473.72) rotate(-113.62)"/>
  <g>
    <rect class="cls-12" x="2216.12" y="341.74" width="42" height="123" rx="12" ry="12" transform="translate(-3.83 21.89) rotate(-0.56)"/>
    <polygon class="cls-12" points="2214.47 352.96 2235.76 315.25 2257.77 352.54 2214.47 352.96"/>
    <rect class="cls-21" x="2214.66" y="449.6" width="74" height="19" rx="7" ry="7" transform="translate(-4.38 22.03) rotate(-0.56)"/>
  </g>
  <g>
    <rect class="cls-12" x="2182.12" y="306.44" width="42" height="123" rx="12" ry="12" transform="translate(1045.73 -1542.45) rotate(49.31)"/>
    <polygon class="cls-12" points="2226.97 318.22 2269.52 310.19 2255.2 351.05 2226.97 318.22"/>
    <rect class="cls-21" x="2132.78" y="405.56" width="74" height="19" rx="7" ry="7" transform="matrix(0.65, 0.76, -0.76, 0.65, 1069.86, -1500.77)"/>
  </g>
  <rect class="cls-11" x="2585.13" y="140.19" width="24" height="75" rx="12" ry="12"/>
  <polygon class="cls-12" points="2597.13 376.16 2649.13 191.19 2545.13 191.19 2597.13 376.16"/>
  <rect class="cls-13" x="2571.13" y="25.19" width="62.86" height="139" rx="31.43" ry="31.43"/>
  <g>
    <circle class="cls-14" cx="2615.95" cy="72.06" r="11.86"/>
    <circle cx="2615.52" cy="72.15" r="3.29"/>
  </g>
  <path class="cls-15" d="M2641.05,126a20.71,20.71,0,0,1,3.18,2.93,14.69,14.69,0,0,0-5.93-10.79c-6.33-4.74-15.05-3.8-19.48,2.11a12.58,12.58,0,0,0-2.4,5.89C2623,120.49,2633.32,120.22,2641.05,126Z"/>
  <g>
    <path class="cls-16" d="M2594,105.2a10.36,10.36,0,0,1-1.25.08,10.74,10.74,0,0,1,.13-21.48,10.38,10.38,0,0,1,1.26.09Z"/>
    <path class="cls-17" d="M2593.38,99.37a4.36,4.36,0,0,1-.51,0,4.86,4.86,0,0,1,.06-9.72,4.36,4.36,0,0,1,.51,0Z"/>
  </g>
  <path class="cls-18" d="M2641.41,103.49l2.75-12.42a7.3,7.3,0,0,0-7.13-8.88h-5.5a7.3,7.3,0,0,0-7.13,8.88l2.76,12.42C2628.85,111.12,2639.72,111.12,2641.41,103.49Z"/>
  <rect class="cls-19" x="2597.59" y="52.19" width="27.83" height="7.57" rx="3.78" ry="3.78"/>
  <ellipse class="cls-20" cx="2603.63" cy="25.68" rx="21.5" ry="4.51"/>
  <rect class="cls-12" x="2505.7" y="255.33" width="111" height="25.74" rx="12" ry="12" transform="translate(1235.23 2475.8) rotate(-64.99)"/>
  <g>
    <rect class="cls-12" x="2632.03" y="319.3" width="42" height="123" rx="12" ry="12" transform="translate(498.06 1974.44) rotate(-44.65)"/>
    <polygon class="cls-12" points="2601.78 360.44 2590.83 318.55 2632.58 330.01 2601.78 360.44"/>
    <rect class="cls-21" x="2665.34" y="401.3" width="74" height="19" rx="7" ry="7" transform="translate(491.21 2017.75) rotate(-44.65)"/>
  </g>
  <g>
    <rect class="cls-12" x="2536.97" y="350.02" width="42" height="123" rx="12" ry="12" transform="translate(417.17 -1047.77) rotate(25.14)"/>
    <polygon class="cls-12" points="2559.38 356.4 2594.91 331.65 2598.58 374.79 2559.38 356.4"/>
    <rect class="cls-21" x="2509.86" y="458.67" width="74" height="19" rx="7" ry="7" transform="translate(440.18 -1037.68) rotate(25.14)"/>
  </g>
  <rect class="cls-12" x="2557.65" y="232.2" width="111" height="25.74" rx="12" ry="12" transform="translate(348.7 -1081.91) rotate(25.01)"/>
  <g>
    <rect class="cls-11" x="141.68" y="626.36" width="47" height="75" rx="12" ry="12"/>
    <polygon class="cls-12" points="165.65 871.39 258.68 686.36 72.61 686.36 165.65 871.39"/>
    <rect class="cls-13" x="121.68" y="533.36" width="88" height="139" rx="31.43" ry="31.43"/>
    <circle class="cls-14" cx="140.5" cy="586.22" r="11.86"/>
    <circle cx="140.07" cy="586.32" r="3.29"/>
    <circle class="cls-14" cx="192.5" cy="586.22" r="11.86"/>
    <circle cx="192.07" cy="586.32" r="3.29"/>
    <path class="cls-15" d="M178.42,639.8a14.79,14.79,0,0,1,3,3.08c.57-5.11-.94-9.8-4.55-12.51-6.29-4.71-16.54-1.67-22.89,6.8a24.64,24.64,0,0,0-4,8C158.82,636.56,170.74,634,178.42,639.8Z"/>
    <g>
      <path class="cls-13" d="M209.37,612a10,10,0,0,0,1.1.06,9.33,9.33,0,0,0-.12-18.65,10,10,0,0,0-1.1.07Z"/>
      <path class="cls-22" d="M210,606.88a2.07,2.07,0,0,0,.43,0,4.22,4.22,0,0,0,0-8.44l-.44,0Z"/>
    </g>
    <g>
      <path class="cls-13" d="M121.5,612a9.82,9.82,0,0,1-1.09.06,9.33,9.33,0,0,1,.12-18.65,9.81,9.81,0,0,1,1.09.07Z"/>
      <path class="cls-22" d="M120.93,606.88a2.16,2.16,0,0,1-.44,0,4.22,4.22,0,0,1,.05-8.44c.15,0,.3,0,.44,0Z"/>
    </g>
    <path class="cls-18" d="M172.8,619.73l6.89-21.88a7.3,7.3,0,0,0-7-9.49H158.94a7.3,7.3,0,0,0-7,9.49l6.89,21.88A7.31,7.31,0,0,0,172.8,619.73Z"/>
    <rect class="cls-19" x="126.15" y="563.36" width="27.83" height="7.57" rx="3.78" ry="3.78"/>
    <rect class="cls-19" x="178.15" y="552.36" width="27.83" height="7.57" rx="3.78" ry="3.78"/>
    <ellipse class="cls-20" cx="165.18" cy="533.35" rx="26.5" ry="5.01"/>
    <ellipse class="cls-19" cx="165.68" cy="672.86" rx="19" ry="3.5"/>
    <rect class="cls-12" x="183.68" y="819.36" width="42" height="123" rx="12" ry="12"/>
    <rect class="cls-12" x="104.68" y="819.36" width="42" height="123" rx="12" ry="12"/>
    <polygon class="cls-12" points="147.83 826.36 126.18 788.86 104.53 826.36 147.83 826.36"/>
    <polygon class="cls-12" points="182.53 832.36 204.18 794.86 225.83 832.36 182.53 832.36"/>
    <rect class="cls-12" x="18.68" y="743.49" width="111" height="25.74" rx="12" ry="12" transform="translate(-441.81 198.38) rotate(-37.16)"/>
    <rect class="cls-12" x="202.68" y="743.49" width="111" height="25.74" rx="12" ry="12" transform="translate(610.45 38.97) rotate(45)"/>
    <rect class="cls-12" x="184.68" y="923.36" width="74" height="19" rx="7" ry="7"/>
    <rect class="cls-12" x="104.68" y="923.36" width="74" height="19" rx="7" ry="7"/>
  </g>
  <g>
    <rect class="cls-11" x="501.33" y="631.33" width="47" height="75" rx="12" ry="12"/>
    <polygon class="cls-12" points="525.3 876.37 618.33 691.33 432.26 691.33 525.3 876.37"/>
    <rect class="cls-13" x="481.33" y="538.33" width="88" height="139" rx="31.43" ry="31.43"/>
    <circle class="cls-14" cx="500.16" cy="591.2" r="11.86"/>
    <circle cx="499.73" cy="591.29" r="3.29"/>
    <circle class="cls-14" cx="552.16" cy="591.2" r="11.86"/>
    <circle cx="551.73" cy="591.29" r="3.29"/>
    <g>
      <path class="cls-13" d="M569,616.92a7.79,7.79,0,0,0,1.09.06,9.33,9.33,0,0,0-.12-18.65,7.88,7.88,0,0,0-1.09.08Z"/>
      <path class="cls-22" d="M569.6,611.86l.44,0a4.22,4.22,0,0,0-.06-8.44l-.43,0Z"/>
    </g>
    <g>
      <path class="cls-13" d="M481.16,616.92a8,8,0,0,1-1.1.06,9.33,9.33,0,0,1,.12-18.65,7.88,7.88,0,0,1,1.09.08Z"/>
      <path class="cls-22" d="M480.58,611.86l-.44,0a4.22,4.22,0,0,1,.06-8.44l.43,0Z"/>
    </g>
    <path class="cls-18" d="M532.45,624.7l6.89-21.87a7.3,7.3,0,0,0-7-9.5H518.59a7.3,7.3,0,0,0-7,9.5l6.89,21.87A7.3,7.3,0,0,0,532.45,624.7Z"/>
    <rect class="cls-19" x="485.8" y="568.33" width="27.83" height="7.57" rx="3.78" ry="3.78"/>
    <rect class="cls-19" x="537.8" y="557.33" width="27.83" height="7.57" rx="3.78" ry="3.78"/>
    <ellipse class="cls-20" cx="524.83" cy="538.32" rx="26.5" ry="5.01"/>
    <ellipse class="cls-19" cx="525.33" cy="677.83" rx="19" ry="3.5"/>
    <rect class="cls-12" x="543.33" y="824.33" width="42" height="123" rx="12" ry="12"/>
    <rect class="cls-12" x="464.33" y="824.33" width="42" height="123" rx="12" ry="12"/>
    <polygon class="cls-12" points="507.48 831.33 485.83 793.83 464.18 831.33 507.48 831.33"/>
    <polygon class="cls-12" points="542.18 837.33 563.83 799.83 585.48 837.33 542.18 837.33"/>
    <rect class="cls-12" x="378.33" y="748.46" width="111" height="25.74" rx="12" ry="12" transform="translate(-371.79 416.63) rotate(-37.16)"/>
    <rect class="cls-12" x="562.33" y="748.46" width="111" height="25.74" rx="12" ry="12" transform="translate(719.3 -213.88) rotate(45)"/>
    <rect class="cls-12" x="544.33" y="928.33" width="74" height="19" rx="7" ry="7"/>
    <rect class="cls-12" x="464.33" y="928.33" width="74" height="19" rx="7" ry="7"/>
    <g>
      <ellipse class="cls-23" cx="525.83" cy="650.33" rx="26.5" ry="10"/>
      <ellipse class="cls-24" cx="526.33" cy="655.33" rx="16" ry="4"/>
    </g>
  </g>
</svg>
